<?xml version="1.0" encoding="utf-8"?>
<!-- Generator: Adobe Illustrator 28.0.0, SVG Export Plug-In . SVG Version: 6.00 Build 0)  -->
<svg version="1.1" xmlns="http://www.w3.org/2000/svg" xmlns:xlink="http://www.w3.org/1999/xlink" x="0px" y="0px"
	 viewBox="500 500 1000 1000" style="enable-background:new 0 0 1000 1000;" xml:space="preserve">
<style type="text/css">
	.st4{fill:#E799AE;}
	.st5{fill:#A15368;}
</style>
<g id="Слой_2">
	<path class="st4" d="M1456.72,1170.47c-96.84,258.6-384.99,389.73-643.6,292.89c-148.64-55.66-255.17-174.53-300.48-314.66
		c47.34,58.86,110.61,106.17,186.48,134.59c225.34,84.39,476.42-29.88,560.8-255.21c74.56-199.09-5.96-418.28-181.15-524.82
		c28.51,5.26,56.95,13.1,85.05,23.62C1422.43,623.72,1553.56,911.87,1456.72,1170.47z"/>
	<path class="st5" d="M811.88,1464.85c-148.64-55.66-255.17-174.53-300.49-314.65c6.03,7.5,12.32,14.81,18.86,21.91
		c29.02,52.93,68.18,101.48,117.22,142.61c211.58,177.45,526.95,149.78,704.4-61.8c102.76-122.52,136.73-279.85,106.03-425.04
		c38.6,107.5,40.76,228.72-2.43,344.07C1358.62,1430.56,1070.47,1561.7,811.88,1464.85z"/>
</g>
</svg>
